<svg xmlns="http://www.w3.org/2000/svg" xmlns:xlink="http://www.w3.org/1999/xlink" fill="#86c344" height="300" preserveAspectRatio="xMidYMid meet" version="1" viewBox="-0.8 0.0 352.5 300.0" width="352.5" zoomAndPan="magnify"><g id="change1_1"><path d="M187.5,257h-80.9c-3.4,0-6.1-2.7-6.1-6.1c0-3.4,2.7-6.1,6.1-6.1h79l27.4-18.3c2.8-1.9,6.6-1.1,8.5,1.7 c1.9,2.8,1.1,6.6-1.7,8.5L190.9,256C189.9,256.7,188.7,257,187.5,257z" fill="inherit"/><path d="M179.1,300h-71.8c-22.6,0-44.5-6.7-63.2-19.5L12,258.7c-6.4-4.4-10.7-11.3-11.7-19c-1.1-7.7,1.2-15.5,6.2-21.5 c9-10.8,25.5-12.7,37.5-4.5l45.4,31.1H96c-3.4-4.7-5.3-10.5-5.3-16.7c0-16,13-28.9,28.9-28.9h40.2l17,0.4l23.7-23.7 c13.8-13.8,32.1-21.4,51.6-21.4h35.1c3.4,0,6.1,2.7,6.1,6.1v95.3c0,2.4-1.4,4.6-3.6,5.6L219,292.7C206,297.6,192.6,300,179.1,300z M27.5,220.8c-4.4,0-8.7,1.8-11.6,5.2c-2.8,3.4-4.1,7.7-3.5,12c0.6,4.3,3,8.1,6.5,10.6L51,270.4c16.7,11.4,36.1,17.3,56.3,17.3 h71.8c12.1,0,23.9-2.2,35.3-6.4l66.8-29.5v-85.2h-29c-16.2,0-31.5,6.3-43,17.8L183.6,210c-1.2,1.2-2.8,1.8-4.5,1.8l-19.5-0.4h-40 c-9.2,0-16.7,7.5-16.7,16.7s7.5,16.7,16.7,16.7h36.2c3.4,0,6.1,2.7,6.1,6.1c0,3.4-2.7,6.1-6.1,6.1h-36.2c-0.6,0-1.2,0-1.7-0.1 c-0.3,0-0.5,0.1-0.8,0.1H87.5c-1.2,0-2.4-0.4-3.5-1.1l-47-32.2C34.1,221.7,30.7,220.8,27.5,220.8z" fill="inherit"/><path d="M333.4,292.6h-34c-10.1,0-18.3-8.2-18.3-18.3V142.1c0-10.1,8.2-18.3,18.3-18.3h34c10.1,0,18.3,8.2,18.3,18.3v132.2 C351.7,284.4,343.5,292.6,333.4,292.6z M299.5,136c-3.4,0-6.1,2.7-6.1,6.1v132.2c0,3.4,2.7,6.1,6.1,6.1h34c3.4,0,6.1-2.7,6.1-6.1 V142.1c0-3.4-2.7-6.1-6.1-6.1H299.5z" fill="inherit"/><path d="M75.8,216.4c-2.1,0-4.2-1.1-5.3-3.1c-2.3-4.1-4.2-8.4-5.8-12.9H49.5c-3.4,0-6.1-2.7-6.1-6.1v-39.4c0-3.4,2.7-6.1,6.1-6.1 h15.3c1-3,2.2-5.9,3.6-8.8l-10.8-10.8c-1.1-1.1-1.8-2.7-1.8-4.3c0-1.6,0.6-3.2,1.8-4.3l27.8-27.8c2.4-2.4,6.3-2.4,8.6,0l10.8,10.8 c2.8-1.4,5.8-2.6,8.8-3.6V84.7c0-3.4,2.7-6.1,6.1-6.1h39.4c3.4,0,6.1,2.7,6.1,6.1V100c3,1,5.9,2.2,8.8,3.6l10.8-10.8 c1.1-1.1,2.7-1.8,4.3-1.8c1.6,0,3.2,0.6,4.3,1.8l27.8,27.8c2.4,2.4,2.4,6.3,0,8.6L210.4,140c1,2.1,1.9,4.2,2.7,6.3 c1.2,3.2-0.4,6.7-3.5,7.9c-3.1,1.2-6.7-0.4-7.9-3.5c-1.2-3-2.5-6-4.1-8.8c-1.3-2.4-0.9-5.4,1-7.3l9.6-9.6l-19.2-19.2l-9.7,9.7 c-1.9,1.9-4.9,2.4-7.3,1c-4.6-2.6-9.5-4.6-14.7-6c-2.6-0.7-4.5-3.1-4.5-5.9V90.8h-27.2v13.7c0,2.7-1.8,5.1-4.5,5.9 c-5.2,1.5-10.1,3.5-14.7,6c-2.4,1.3-5.4,0.9-7.3-1l-9.7-9.7l-19.2,19.2l9.6,9.6c1.9,1.9,2.3,4.9,1,7.3c-2.6,4.6-4.6,9.5-6.1,14.7 c-0.7,2.6-3.1,4.5-5.9,4.5H55.6v27.1h13.6c2.7,0,5.1,1.8,5.9,4.5c1.5,5.2,3.5,10.1,6.1,14.7c1.7,2.9,0.6,6.7-2.3,8.3 C77.9,216.2,76.8,216.4,75.8,216.4z" fill="inherit"/><path d="M96,199.2c-2.4,0-4.6-1.4-5.6-3.7c-2.8-6.6-4.3-13.6-4.3-20.9c0-29.4,23.9-53.3,53.3-53.3c26.6,0,49.3,19.9,52.8,46.2 c0.4,3.3-1.9,6.4-5.3,6.9c-3.4,0.4-6.4-1.9-6.9-5.3c-2.7-20.3-20.2-35.6-40.7-35.6c-22.6,0-41.1,18.4-41.1,41.1 c0,5.6,1.1,11,3.3,16.1c1.3,3.1-0.1,6.7-3.2,8C97.6,199,96.8,199.2,96,199.2z" fill="inherit"/><path d="M289.9,107.7c-2.3,0-4.5-1.3-5.5-3.5c-26.4-55.9-83.4-92-145.2-92C92.4,12.2,48.1,32.5,17.5,68c-1.7,1.9-4.3,2.6-6.7,1.7 c-2.4-0.9-4-3.2-4-5.7l0-26.9c0-3.4,2.7-6.1,6.1-6.1c3.4,0,6.1,2.7,6.1,6.1l0,11.6C51.1,17.6,94.1,0,139.2,0 C205.7,0,267,38.8,295.5,98.9c1.4,3,0.1,6.7-2.9,8.1C291.7,107.5,290.8,107.7,289.9,107.7z" fill="inherit"/><path d="M35.1,74c-0.3,0-0.7,0-1.1-0.1L11.9,70c-3.3-0.6-5.5-3.7-5-7.1c0.6-3.3,3.7-5.6,7.1-5l22.2,3.9c3.3,0.6,5.5,3.7,5,7.1 C40.6,71.9,38,74,35.1,74z" fill="inherit"/><path d="M14.6,202.8c-2.9,0-5.5-2.1-6-5.1c-1.2-7.3-1.9-14.9-1.9-22.4c0-73,59.4-132.5,132.5-132.5c50.4,0,96.2,28.8,118.4,73.1 l1.5-4.1c1.2-3.2,4.7-4.8,7.8-3.6c3.2,1.2,4.8,4.7,3.6,7.8l-6.8,18.4c-0.9,2.4-3.2,4-5.7,4c-2.6,0-4.9-1.6-5.7-4 C235.2,87,189.7,55.1,139.2,55.1C72.9,55.1,19,109.1,19,175.4c0,6.8,0.6,13.6,1.7,20.3c0.6,3.3-1.7,6.5-5,7 C15.3,202.8,15,202.8,14.6,202.8z" fill="inherit"/><path d="M258.1,138.5c-0.5,0-0.9-0.1-1.4-0.2l-20.2-4.8c-3.3-0.8-5.3-4.1-4.5-7.3c0.8-3.3,4.1-5.3,7.3-4.5l20.2,4.8 c3.3,0.8,5.3,4.1,4.5,7.3C263.3,136.7,260.8,138.5,258.1,138.5z" fill="inherit"/></g></svg>