<?xml version="1.0" encoding="UTF-8" standalone="no"?><svg xmlns="http://www.w3.org/2000/svg" xmlns:xlink="http://www.w3.org/1999/xlink" fill="#86c344" height="68.2" preserveAspectRatio="xMidYMid meet" version="1" viewBox="0.0 0.0 56.3 68.2" width="56.3" zoomAndPan="magnify"><g data-name="8" id="change1_1"><path d="M9.177,30.662c-.194,1.4-.394,2.8-.589,4.2-.126.9-.247,1.8-.371,2.709.165.048.273.09.385.111,2.14.4,4.275.822,6.423,1.177A2.986,2.986,0,0,1,17.3,40.511c.461.866.915,1.735,1.374,2.6.6,1.128,1.2,2.255,1.817,3.421.181-.08.331-.143.478-.212,1.923-.905,3.851-1.8,5.77-2.719a3.009,3.009,0,0,1,2.778.015c1.891.935,3.789,1.855,5.686,2.779.127.063.262.111.4.169.1-.174.187-.315.268-.46q1.524-2.746,3.045-5.494A3,3,0,0,1,41.1,39.022c1.242-.226,2.491-.416,3.737-.623.978-.163,1.955-.33,2.96-.5-.022-.234-.035-.413-.056-.592-.251-2.1-.5-4.192-.756-6.287a2.9,2.9,0,0,1,.873-2.54c.47-.471.928-.953,1.391-1.431L52.586,23.6c-.131-.15-.237-.275-.348-.395Q50.07,20.859,47.9,18.518a2.828,2.828,0,0,1-.78-2.381c.224-1.714.484-3.423.726-5.134.088-.617.167-1.234.25-1.854-.147-.042-.224-.07-.3-.086-2.151-.426-4.3-.874-6.456-1.267A2.919,2.919,0,0,1,39.21,6.235c-.355-.639-.685-1.292-1.027-1.938-.73-1.378-1.462-2.755-2.222-4.185-2.131.977-4.2,1.914-6.264,2.876a2.973,2.973,0,0,1-2.73-.016c-1.682-.833-3.373-1.65-5.06-2.472-.339-.166-.68-.326-1.046-.5-.126.221-.234.405-.337.592-.985,1.773-1.978,3.54-2.951,5.319a3.085,3.085,0,0,1-2.291,1.66c-2.062.358-4.12.742-6.187,1.077-.493.08-.611.254-.546.739.27,2.027.47,4.062.756,6.086a3.187,3.187,0,0,1-.919,2.862C6.958,19.8,5.558,21.29,4.147,22.77c-.111.118-.216.242-.335.374.13.151.234.279.345.4q2.116,2.323,4.236,4.643A2.9,2.9,0,0,1,9.177,30.662ZM28.122,8.326A14.97,14.97,0,1,1,13.161,23.274,14.989,14.989,0,0,1,28.122,8.326Zm-.088,26.961a11.993,11.993,0,1,0-11.9-12.056A12.038,12.038,0,0,0,28.034,35.287ZM21.279,22.808a1.633,1.633,0,0,1,2.394.08c.7.687,1.377,1.391,2.106,2.129l4.391-4.4q1.18-1.182,2.361-2.362a1.63,1.63,0,1,1,2.3,2.292q-3.9,3.919-7.819,7.826a1.606,1.606,0,0,1-2.43,0q-1.613-1.595-3.2-3.208A1.641,1.641,0,0,1,21.279,22.808ZM55.133,57.119c.384.675.765,1.353,1.206,2.133h-.7c-3.125,0-6.251.011-9.376-.007a1.7,1.7,0,0,0-1.655.954c-1.384,2.5-2.8,4.984-4.2,7.474-.089.156-.182.309-.33.56l-9.64-16.727a3.018,3.018,0,0,0-2.206-1.254,3.118,3.118,0,0,0-2.6,1.327c-4.763,8.22-6.624,11.5-7.2,12.582-.159.3-.921,1.608-1.938,3.37-.081.14-.171.273-.289.461l-2.676-4.621c-.616-1.064-1.24-2.124-1.847-3.193a1.7,1.7,0,0,0-1.625-.933c-3.143.018-6.284.007-9.426.006H0c.1-.194.161-.335.236-.47q4.916-8.7,9.824-17.4a.576.576,0,0,1,.741-.342c1.122.23,2.259.392,3.381.621a.977.977,0,0,1,.582.428c1.027,1.843,2.03,3.7,3.032,5.556A3,3,0,0,0,22,49.078c1.107-.49,2.045-.848,2.828-1.3s1.621-.763,2.4-1.211a1.5,1.5,0,0,1,.762-.219,1.284,1.284,0,0,1,.541.121c1.829.909,3.689,1.759,5.5,2.708a3.193,3.193,0,0,0,4.37-1.379c.919-1.823,1.977-3.577,2.952-5.372a.9.9,0,0,1,.715-.514c1.2-.2,2.39-.414,3.579-.654a.514.514,0,0,1,.664.3Q50.7,49.345,55.133,57.119Z"/></g></svg>